<svg width="70" height="69" viewBox="0 0 70 69" fill="none" xmlns="http://www.w3.org/2000/svg">
<path d="M8.856 60.384V66H7.488V62.632L6.232 66H5.128L3.864 62.624V66H2.496V60.384H4.112L5.688 64.272L7.248 60.384H8.856ZM13.3358 65.008H11.2398L10.9038 66H9.47175L11.5038 60.384H13.0878L15.1198 66H13.6718L13.3358 65.008ZM12.9838 63.952L12.2878 61.896L11.5998 63.952H12.9838ZM18.6022 66L17.4342 63.88H17.1062V66H15.7382V60.384H18.0342C18.4769 60.384 18.8529 60.4613 19.1622 60.616C19.4769 60.7707 19.7115 60.984 19.8662 61.256C20.0209 61.5227 20.0982 61.8213 20.0982 62.152C20.0982 62.5253 19.9915 62.8587 19.7782 63.152C19.5702 63.4453 19.2609 63.6533 18.8502 63.776L20.1462 66H18.6022ZM17.1062 62.912H17.9542C18.2049 62.912 18.3915 62.8507 18.5142 62.728C18.6422 62.6053 18.7062 62.432 18.7062 62.208C18.7062 61.9947 18.6422 61.8267 18.5142 61.704C18.3915 61.5813 18.2049 61.52 17.9542 61.52H17.1062V62.912ZM20.7249 63.184C20.7249 62.6293 20.8449 62.136 21.0849 61.704C21.3249 61.2667 21.6583 60.928 22.0849 60.688C22.5169 60.4427 23.0049 60.32 23.5489 60.32C24.2156 60.32 24.7863 60.496 25.2609 60.848C25.7356 61.2 26.0529 61.68 26.2129 62.288H24.7089C24.5969 62.0533 24.4369 61.8747 24.2289 61.752C24.0263 61.6293 23.7943 61.568 23.5329 61.568C23.1116 61.568 22.7703 61.7147 22.5089 62.008C22.2476 62.3013 22.1169 62.6933 22.1169 63.184C22.1169 63.6747 22.2476 64.0667 22.5089 64.36C22.7703 64.6533 23.1116 64.8 23.5329 64.8C23.7943 64.8 24.0263 64.7387 24.2289 64.616C24.4369 64.4933 24.5969 64.3147 24.7089 64.08H26.2129C26.0529 64.688 25.7356 65.168 25.2609 65.52C24.7863 65.8667 24.2156 66.04 23.5489 66.04C23.0049 66.04 22.5169 65.92 22.0849 65.68C21.6583 65.4347 21.3249 65.096 21.0849 64.664C20.8449 64.232 20.7249 63.7387 20.7249 63.184ZM31.8667 60.384L29.9227 64.144V66H28.5547V64.144L26.6107 60.384H28.1627L29.2507 62.736L30.3307 60.384H31.8667ZM40.4732 60.384V66H39.1052V62.632L37.8492 66H36.7452L35.4812 62.624V66H34.1132V60.384H35.7292L37.3052 64.272L38.8652 60.384H40.4732ZM42.8009 60.384V63.744C42.8009 64.08 42.8836 64.3387 43.0489 64.52C43.2143 64.7013 43.4569 64.792 43.7769 64.792C44.0969 64.792 44.3423 64.7013 44.5129 64.52C44.6836 64.3387 44.7689 64.08 44.7689 63.744V60.384H46.1369V63.736C46.1369 64.2373 46.0303 64.6613 45.8169 65.008C45.6036 65.3547 45.3156 65.616 44.9529 65.792C44.5956 65.968 44.1956 66.056 43.7529 66.056C43.3103 66.056 42.9129 65.9707 42.5609 65.8C42.2143 65.624 41.9396 65.3627 41.7369 65.016C41.5343 64.664 41.4329 64.2373 41.4329 63.736V60.384H42.8009ZM53.4576 60.384V66H52.0896V62.632L50.8336 66H49.7296L48.4656 62.624V66H47.0976V60.384H48.7136L50.2896 64.272L51.8496 60.384H53.4576ZM57.0973 66.056C56.5693 66.056 56.084 65.9333 55.6413 65.688C55.204 65.4427 54.8546 65.1013 54.5933 64.664C54.3373 64.2213 54.2093 63.7253 54.2093 63.176C54.2093 62.6267 54.3373 62.1333 54.5933 61.696C54.8546 61.2587 55.204 60.9173 55.6413 60.672C56.084 60.4267 56.5693 60.304 57.0973 60.304C57.6253 60.304 58.108 60.4267 58.5453 60.672C58.988 60.9173 59.3346 61.2587 59.5853 61.696C59.8413 62.1333 59.9693 62.6267 59.9693 63.176C59.9693 63.7253 59.8413 64.2213 59.5853 64.664C59.3293 65.1013 58.9826 65.4427 58.5453 65.688C58.108 65.9333 57.6253 66.056 57.0973 66.056ZM57.0973 64.808C57.5453 64.808 57.9026 64.6587 58.1693 64.36C58.4413 64.0613 58.5773 63.6667 58.5773 63.176C58.5773 62.68 58.4413 62.2853 58.1693 61.992C57.9026 61.6933 57.5453 61.544 57.0973 61.544C56.644 61.544 56.2813 61.6907 56.0093 61.984C55.7426 62.2773 55.6093 62.6747 55.6093 63.176C55.6093 63.672 55.7426 64.0693 56.0093 64.368C56.2813 64.6613 56.644 64.808 57.0973 64.808Z" fill="black"/>
<rect width="15" height="48" fill="black"/>
<rect x="5" y="14.0476" width="15" height="48" transform="rotate(-42.055 5 14.0476)" fill="black"/>
<rect x="50.1183" y="4" width="15" height="48" transform="rotate(42 50.1183 4)" fill="black"/>
<rect x="52" width="15" height="48" fill="black"/>
<path d="M64.3174 57.4453H65.6431C65.9149 57.4453 66.1484 57.486 66.3438 57.5674C66.5407 57.6488 66.6921 57.7692 66.7979 57.9287C66.9036 58.0882 66.9565 58.2843 66.9565 58.5171C66.9565 58.7075 66.924 58.8711 66.8589 59.0078C66.7954 59.1429 66.7051 59.256 66.5879 59.3472C66.4723 59.4367 66.3364 59.5083 66.1802 59.562L65.9482 59.6841H64.7959L64.791 59.1128H65.6479C65.7765 59.1128 65.8831 59.09 65.9678 59.0444C66.0524 58.9989 66.1159 58.9354 66.1582 58.854C66.2021 58.7726 66.2241 58.6782 66.2241 58.5708C66.2241 58.4569 66.203 58.3584 66.1606 58.2754C66.1183 58.1924 66.054 58.1289 65.9678 58.085C65.8815 58.041 65.7733 58.019 65.6431 58.019H65.0498V61H64.3174V57.4453ZM66.3047 61L65.4941 59.4155L66.2681 59.4106L67.0884 60.9658V61H66.3047Z" fill="black"/>
<circle cx="65.5" cy="59.5" r="4" stroke="black"/>
</svg>
